<svg xmlns="http://www.w3.org/2000/svg" width="181.927" height="47.33" viewBox="0 0 181.927 47.33"><g transform="translate(45.38 10.018)"><g transform="translate(0.984 10.192)"><rect width="4.367" height="19.047" transform="translate(0 0.44)"/><path d="M406.821,377.87V380.4a5.354,5.354,0,0,1,2.184-2.11,7.376,7.376,0,0,1,3.688-.862,6.681,6.681,0,0,1,5.23,2.055,7.858,7.858,0,0,1,1.853,5.468v11.964h-4.367V385.5a4.909,4.909,0,0,0-.936-3.175,3.442,3.442,0,0,0-2.844-1.156,4.328,4.328,0,0,0-3.285,1.248,4.787,4.787,0,0,0-1.193,3.449v11.046h-4.367V377.87Z" transform="translate(-393.133 -377.43)"/><path d="M488.065,397.357q-3.927,0-5.909-1.835a6.738,6.738,0,0,1-2.165-4.7h4.22a2.747,2.747,0,0,0,1.138,2.128,5.968,5.968,0,0,0,5.578.22,1.8,1.8,0,0,0,.918-1.579,1.729,1.729,0,0,0-1.119-1.634,12.239,12.239,0,0,0-2.716-.867l-3.229-.678a4.981,4.981,0,0,1-2.752-1.591,4.922,4.922,0,0,1-1.119-3.413,5.349,5.349,0,0,1,2.073-4.239,8.246,8.246,0,0,1,5.487-1.743,9.042,9.042,0,0,1,3.431.605,5.769,5.769,0,0,1,2.312,1.6,7.81,7.81,0,0,1,1.248,2.018,6.712,6.712,0,0,1,.5,2.092h-4.184a2.987,2.987,0,0,0-.972-1.945,3.439,3.439,0,0,0-2.44-.807,4.232,4.232,0,0,0-2.422.584,1.855,1.855,0,0,0-.844,1.611,1.578,1.578,0,0,0,1.135,1.452,14.964,14.964,0,0,0,2.732.849l3.229.716a4.846,4.846,0,0,1,2.736,1.688,5.327,5.327,0,0,1,1.1,3.522,5.264,5.264,0,0,1-2.074,4.257A9.106,9.106,0,0,1,488.065,397.357Z" transform="translate(-449.752 -377.43)"/><path d="M559.226,394.421V404.55h-4.367V377.87H558.9v2.716q2.018-3.156,6.422-3.156a7.956,7.956,0,0,1,6.477,2.862,11.863,11.863,0,0,1,0,14.221,7.978,7.978,0,0,1-6.477,2.844Q561.135,397.357,559.226,394.421Zm-.147-7.009a6.552,6.552,0,0,0,1.45,4.367,5.251,5.251,0,0,0,7.8-.018,6.52,6.52,0,0,0,1.468-4.349,6.7,6.7,0,0,0-1.468-4.441,5.214,5.214,0,0,0-7.8-.018A6.738,6.738,0,0,0,559.079,387.412Z" transform="translate(-504.656 -377.43)"/><path d="M642.385,398.128V379.081h4.368v19.047Z" transform="translate(-568.842 -378.641)"/><path d="M688.856,378.43V382.5a7.038,7.038,0,0,0-.991-.073q-4.918,0-4.918,5.285v9.908H678.58V378.576h4.037v2.642q1.614-2.825,5.615-2.826Z" transform="translate(-595.386 -378.136)"/><path d="M736.667,394.715q4.036,0,4.037-4.44V379.081h4.367v10.973a9.137,9.137,0,0,1-2,6.22q-2,2.294-6.4,2.294t-6.4-2.294a9.136,9.136,0,0,1-2-6.22V379.081h4.367v11.193Q732.63,394.715,736.667,394.715Z" transform="translate(-631.82 -378.641)"/><path d="M820.01,379.081l-7.074,9.365,7.331,9.681h-5.285l-4.679-6.2-4.679,6.2h-5.248l7.3-9.668-7.083-9.378h5.248l4.465,5.9,4.453-5.9Z" transform="translate(-684.704 -378.641)"/></g><circle cx="3.168" cy="3.168" r="3.168" transform="translate(0 0)"/></g><path d="M731.035,450.763l-.01-.01-.045-.035-.059-.048h0l-.006,0a9.108,9.108,0,0,0-1.114-.743l-30.41-17.041v17.789a9.235,9.235,0,0,0,4.753,8.07l7.531,4.181L700,469.4l16.542,9.769a7.551,7.551,0,0,0,7.48.1l6.342-3.519c.1-.053.189-.109.278-.164h0a8.482,8.482,0,0,0,4.079-7.223l0-9.939A9.86,9.86,0,0,0,731.035,450.763Zm-9.919,12.162,8.232-4.57a.524.524,0,0,1,.779.457l.02,9.127Zm-14.751-8.189a4.96,4.96,0,0,1-1.751-1.707,4.645,4.645,0,0,1-.644-2.359V440.7l23.186,13a.363.363,0,0,1,0,.635l-10.121,5.619a1.35,1.35,0,0,1-1.284.013C711.241,457.589,707.9,455.686,706.366,454.736Zm15.439,20.53a2.956,2.956,0,0,1-2.928-.039l-9.656-5.7,6.513-3.616a1.359,1.359,0,0,1,1.319,0l10.8,6Z" transform="translate(-699.39 -432.882)"/></svg>